<?xml version="1.0" encoding="UTF-8" standalone="no"?>
<svg
   id="Layer_1"
   enable-background="new 0 0 66 66"
   viewBox="0 0 66 66"
   version="1.1"
   sodipodi:docname="buffer.svg"
   inkscape:version="1.3 (0e150ed6c4, 2023-07-21)"
   xmlns:inkscape="http://www.inkscape.org/namespaces/inkscape"
   xmlns:sodipodi="http://sodipodi.sourceforge.net/DTD/sodipodi-0.dtd"
   xmlns="http://www.w3.org/2000/svg"
   xmlns:svg="http://www.w3.org/2000/svg">
  <defs
     id="defs48" />
  <sodipodi:namedview
     id="namedview48"
     pagecolor="#ffffff"
     bordercolor="#000000"
     borderopacity="0.25"
     inkscape:showpageshadow="2"
     inkscape:pageopacity="0.0"
     inkscape:pagecheckerboard="0"
     inkscape:deskcolor="#d1d1d1"
     inkscape:zoom="27.560606"
     inkscape:cx="32.981858"
     inkscape:cy="33"
     inkscape:window-width="3840"
     inkscape:window-height="2054"
     inkscape:window-x="2869"
     inkscape:window-y="-11"
     inkscape:window-maximized="1"
     inkscape:current-layer="g23" />
  <g
     id="g48">
    <g
       id="g4">
      <g
         id="g3">
        <g
           id="g1">
          <path
             d="m59.66 62.31v-32.1c0-1.26-1.03-2.29-2.29-2.29h-9c-1.34 0-2.42 1.16-2.28 2.53.12 1.19 1.21 2.05 2.41 2.05h5.67c1.01 0 .92.82.92 1.83v27.99z"
             fill="#00a5e0"
             id="path1" />
        </g>
        <g
           id="g2">
          <path
             d="m55.08 63c-.18 0-.36-.07-.49-.2s-.2-.3-.2-.49v-28.23c0-.31.01-.77-.06-.89 0 .01-.05-.01-.17-.01h-5.67c-1.58 0-2.94-1.17-3.09-2.67-.08-.84.19-1.68.75-2.3s1.37-.98 2.21-.98h9c1.64 0 2.98 1.34 2.98 2.98v32.11c0 .38-.31.69-.69.69zm-6.72-34.4c-.45 0-.89.19-1.19.53-.31.34-.45.78-.41 1.24.08.8.84 1.43 1.73 1.43h5.67c.48 0 .87.14 1.14.42.47.48.47 1.15.46 1.86v.24 27.3h3.21v-31.41c0-.88-.72-1.6-1.6-1.6h-9.01z"
             fill="#363d3d"
             id="path2" />
        </g>
      </g>
    </g>
    <g
       id="g7">
      <g
         id="g5">
        <path
           d="m45.54 62.31h-35.65c-1.56 0-2.82-1.26-2.82-2.82v-40.63h41.29v40.63c0 1.56-1.26 2.82-2.82 2.82z"
           fill="#00a5e0"
           id="path4" />
      </g>
      <g
         id="g6">
        <path
           d="m45.54 63h-35.65c-1.93 0-3.51-1.57-3.51-3.51v-40.63c0-.38.31-.69.69-.69h41.29c.38 0 .69.31.69.69v40.63c0 1.93-1.57 3.51-3.51 3.51zm-37.78-43.46v39.95c0 1.18.96 2.13 2.13 2.13h35.65c1.18 0 2.13-.96 2.13-2.13v-39.95z"
           fill="#363d3d"
           id="path5" />
      </g>
    </g>
    <g
       id="g10">
      <g
         id="g8">
        <path
           d="m6.22 18.86h43c1.4 0 2.53-1.13 2.53-2.53s-1.13-2.53-2.53-2.53h-43c-1.4 0-2.53 1.13-2.53 2.53 0 1.39 1.13 2.53 2.53 2.53z"
           fill="#dbeaf2"
           id="path7" />
      </g>
      <g
         id="g9">
        <path
           d="m49.21 19.54h-43c-1.77 0-3.21-1.44-3.21-3.21s1.44-3.21 3.22-3.21h43c1.77 0 3.21 1.44 3.21 3.21s-1.44 3.21-3.22 3.21zm-42.99-5.05c-1.02 0-1.84.83-1.84 1.84s.83 1.84 1.84 1.84h43c1.02 0 1.84-.83 1.84-1.84s-.83-1.84-1.84-1.84z"
           fill="#363d3d"
           id="path8" />
      </g>
    </g>
    <g
       id="g13">
      <g
         id="g11">
        <path
           d="m8.84 13.8h37.76v-2.51c0-1.67-1.35-3.02-3.02-3.02h-31.72c-1.67 0-3.02 1.35-3.02 3.02z"
           fill="#ffa431"
           id="path10" />
      </g>
      <g
         id="g12">
        <path
           d="m46.59 14.49h-37.75c-.38 0-.69-.31-.69-.69v-1.87c0-2.4 1.95-4.35 4.35-4.35h30.43c2.4 0 4.35 1.95 4.35 4.35v1.87c0 .38-.31.69-.69.69zm-37.07-1.38h36.38v-1.18c0-1.64-1.34-2.98-2.98-2.98h-30.42c-1.64 0-2.98 1.34-2.98 2.98z"
           fill="#363d3d"
           id="path11" />
      </g>
    </g>
    <g
       id="g16">
      <g
         id="g14">
        <path
           d="m34.31 8.27h-13.19v-3.65c0-.51.42-.93.93-.93h11.33c.51 0 .93.42.93.93z"
           fill="#fff"
           id="path13" />
      </g>
      <g
         id="g15">
        <path
           d="m34.31 8.95h-13.19c-.38 0-.69-.31-.69-.69v-2.74c0-1.39 1.13-2.52 2.52-2.52h9.53c1.39 0 2.52 1.13 2.52 2.52v2.75c0 .38-.31.68-.69.68zm-12.5-1.37h11.82v-2.06c0-.63-.51-1.15-1.15-1.15h-9.53c-.63 0-1.15.51-1.15 1.15v2.06z"
           fill="#363d3d"
           id="path14" />
      </g>
    </g>
    <g
       id="g19">
      <g
         id="g17">
        <circle
           cx="27.72"
           cy="40.58"
           fill="#fff"
           r="11.54"
           id="circle16" />
      </g>
      <g
         id="g18">
        <path
           d="m27.72 52.81c-6.74 0-12.23-5.49-12.23-12.23s5.49-12.23 12.23-12.23 12.23 5.49 12.23 12.23-5.49 12.23-12.23 12.23zm0-23.08c-5.99 0-10.85 4.87-10.85 10.86s4.87 10.85 10.85 10.85 10.85-4.87 10.85-10.85-4.87-10.86-10.85-10.86z"
           fill="#363d3d"
           id="path17" />
      </g>
    </g>
    <g
       id="g23" />
    <g
       id="g25">
      <g
         id="g24">
        <path
           d="m62.31 63h-58.62c-.38 0-.69-.31-.69-.69s.31-.69.69-.69h58.62c.38 0 .69.31.69.69s-.31.69-.69.69z"
           fill="#363d3d"
           id="path23" />
      </g>
    </g>
    <g
       id="g36">
      <g
         id="g27">
        <g
           id="g26">
          <path
             d="m11.47 26.35h-4.4c-.38 0-.69-.31-.69-.69s.31-.69.69-.69h4.41c.38 0 .69.31.69.69s-.32.69-.7.69z"
             fill="#363d3d"
             id="path25" />
        </g>
      </g>
      <g
         id="g29">
        <g
           id="g28">
          <path
             d="m9.64 33.81h-2.57c-.38 0-.69-.31-.69-.69s.31-.69.69-.69h2.57c.38 0 .69.31.69.69s-.31.69-.69.69z"
             fill="#363d3d"
             id="path27" />
        </g>
      </g>
      <g
         id="g31">
        <g
           id="g30">
          <path
             d="m11.47 41.27h-4.4c-.38 0-.69-.31-.69-.69s.31-.69.69-.69h4.41c.38 0 .69.31.69.69s-.32.69-.7.69z"
             fill="#363d3d"
             id="path29" />
        </g>
      </g>
      <g
         id="g33">
        <g
           id="g32">
          <path
             d="m10.56 48.73h-3.49c-.38 0-.69-.31-.69-.69s.31-.69.69-.69h3.49c.38 0 .69.31.69.69s-.31.69-.69.69z"
             fill="#363d3d"
             id="path31" />
        </g>
      </g>
      <g
         id="g35">
        <g
           id="g34">
          <path
             d="m11.47 56.19h-4.4c-.38 0-.69-.31-.69-.69s.31-.69.69-.69h4.41c.38 0 .69.31.69.69-.01.38-.32.69-.7.69z"
             fill="#363d3d"
             id="path33" />
        </g>
      </g>
    </g>
    <g
       id="g47">
      <g
         id="g38">
        <g
           id="g37">
          <path
             d="m48.28 26.35h-4.41c-.38 0-.69-.31-.69-.69s.31-.69.69-.69h4.41c.38 0 .69.31.69.69s-.32.69-.69.69z"
             fill="#363d3d"
             id="path36" />
        </g>
      </g>
      <g
         id="g40">
        <g
           id="g39">
          <path
             d="m48.28 33.81h-2.58c-.38 0-.69-.31-.69-.69s.31-.69.69-.69h2.57c.38 0 .69.31.69.69s-.31.69-.68.69z"
             fill="#363d3d"
             id="path38" />
        </g>
      </g>
      <g
         id="g42">
        <g
           id="g41">
          <path
             d="m48.28 41.27h-4.41c-.38 0-.69-.31-.69-.69s.31-.69.69-.69h4.41c.38 0 .69.31.69.69s-.32.69-.69.69z"
             fill="#363d3d"
             id="path40" />
        </g>
      </g>
      <g
         id="g44">
        <g
           id="g43">
          <path
             d="m48.28 48.73h-3.49c-.38 0-.69-.31-.69-.69s.31-.69.69-.69h3.49c.38 0 .69.31.69.69-.01.38-.32.69-.69.69z"
             fill="#363d3d"
             id="path42" />
        </g>
      </g>
      <g
         id="g46">
        <g
           id="g45">
          <path
             d="m48.28 56.19h-4.41c-.38 0-.69-.31-.69-.69s.31-.69.69-.69h4.41c.38 0 .69.31.69.69-.01.38-.32.69-.69.69z"
             fill="#363d3d"
             id="path44" />
        </g>
      </g>
    </g>
  </g>
</svg>
