<?xml version="1.0" encoding="UTF-8"?>
<svg xmlns="http://www.w3.org/2000/svg" xmlns:xlink="http://www.w3.org/1999/xlink" version="1.1" id="Capa_1" x="0px" y="0px" viewBox="0 0 512 512" style="enable-background:new 0 0 512 512;" xml:space="preserve" width="512" height="512">
<g>
	<path style="fill:#FFAB56;" d="M264.106,277.553H162.651c-4.574,0-8.282-3.708-8.282-8.282v-92.565&#10;&#9;&#9;c0-4.574,3.708-8.282,8.282-8.282h101.455c4.574,0,8.282,3.708,8.282,8.282v92.565C272.388,273.845,268.68,277.553,264.106,277.553&#10;&#9;&#9;z"/>
	<rect x="203.867" y="168.425" style="fill:#FF982A;" width="21.138" height="109.128"/>
	<path style="fill:none;stroke:#000000;stroke-width:15;stroke-linecap:round;stroke-linejoin:round;stroke-miterlimit:10;" d="&#10;&#9;&#9;M264.106,277.553H162.651c-4.574,0-8.282-3.708-8.282-8.282v-92.565c0-4.574,3.708-8.282,8.282-8.282h101.455&#10;&#9;&#9;c4.574,0,8.282,3.708,8.282,8.282v92.565C272.388,273.845,268.68,277.553,264.106,277.553z"/>
	<rect x="197.085" y="168.425" style="fill:#395A61;" width="32.587" height="38.813"/>
	
		<rect x="197.085" y="168.425" style="fill:none;stroke:#000000;stroke-width:15;stroke-linecap:round;stroke-linejoin:round;stroke-miterlimit:10;" width="32.587" height="38.813"/>
	
		<line style="fill:none;stroke:#000000;stroke-width:15;stroke-linecap:round;stroke-linejoin:round;stroke-miterlimit:10;" x1="7.5" y1="480.294" x2="504.5" y2="480.294"/>
	<path style="fill:#5FAEE2;" d="M203.867,375.674H15.201c-4.253,0-7.701-3.448-7.701-7.701V121.797c0-4.618,3.743-8.361,8.361-8.361&#10;&#9;&#9;h179.645c4.618,0,8.361,3.743,8.361,8.361V375.674z"/>
	<path style="fill:#309ADA;" d="M195.506,113.436h-20.816c4.618,0,8.361,3.743,8.361,8.361v253.877h20.817V121.797&#10;&#9;&#9;C203.867,117.179,200.124,113.436,195.506,113.436z"/>
	<path style="fill:#4F6C77;" d="M467.852,350.849H203.867v-73.295h263.985c20.24,0,36.648,16.408,36.648,36.648v0&#10;&#9;&#9;C504.5,334.441,488.092,350.849,467.852,350.849z"/>
	<rect x="203.867" y="277.553" style="fill:#395A61;" width="21.138" height="73.295"/>
	<path style="fill:none;stroke:#000000;stroke-width:15;stroke-linecap:round;stroke-linejoin:round;stroke-miterlimit:10;" d="&#10;&#9;&#9;M467.852,350.849H203.867v-73.295h263.985c20.24,0,36.648,16.408,36.648,36.648v0C504.5,334.441,488.092,350.849,467.852,350.849z"/>
	<path style="fill:#FF6C53;" d="M444.332,350.849H203.867v37.033c0,3.473,2.815,6.288,6.288,6.288h191.708&#10;&#9;&#9;c7.733,0,14.976-3.785,19.391-10.134L444.332,350.849z"/>
	<path style="fill:#FF534A;" d="M225.005,387.882v-37.033h-21.138v37.033c0,3.473,2.815,6.288,6.288,6.288h21.138&#10;&#9;&#9;C227.82,394.17,225.005,391.354,225.005,387.882z"/>
	<path style="fill:#395A61;" d="M459.741,326.756h-20.248c-6.934,0-12.555-5.621-12.555-12.555v0&#10;&#9;&#9;c0-6.934,5.621-12.555,12.555-12.555h20.248c6.934,0,12.555,5.621,12.555,12.555v0&#10;&#9;&#9;C472.296,321.135,466.675,326.756,459.741,326.756z"/>
	<path style="fill:none;stroke:#000000;stroke-width:15;stroke-linecap:round;stroke-linejoin:round;stroke-miterlimit:10;" d="&#10;&#9;&#9;M459.741,326.756h-20.248c-6.934,0-12.555-5.621-12.555-12.555v0c0-6.934,5.621-12.555,12.555-12.555h20.248&#10;&#9;&#9;c6.934,0,12.555,5.621,12.555,12.555v0C472.296,321.135,466.675,326.756,459.741,326.756z"/>
	
		<line style="fill:none;stroke:#000000;stroke-width:15;stroke-linecap:round;stroke-linejoin:round;stroke-miterlimit:10;" x1="399.195" y1="314.201" x2="232.296" y2="314.201"/>
	<g>
		
			<line style="fill:none;stroke:#000000;stroke-width:15;stroke-linecap:round;stroke-linejoin:round;stroke-miterlimit:10;" x1="249.03" y1="305.37" x2="249.03" y2="323.031"/>
		
			<line style="fill:none;stroke:#000000;stroke-width:15;stroke-linecap:round;stroke-linejoin:round;stroke-miterlimit:10;" x1="293.507" y1="305.37" x2="293.507" y2="323.031"/>
		
			<line style="fill:none;stroke:#000000;stroke-width:15;stroke-linecap:round;stroke-linejoin:round;stroke-miterlimit:10;" x1="337.984" y1="305.37" x2="337.984" y2="323.031"/>
		
			<line style="fill:none;stroke:#000000;stroke-width:15;stroke-linecap:round;stroke-linejoin:round;stroke-miterlimit:10;" x1="382.461" y1="305.37" x2="382.461" y2="323.031"/>
	</g>
	<path style="fill:#FFAB56;" d="M441.335,277.553H339.88c-4.574,0-8.282-3.708-8.282-8.282v-92.565c0-4.574,3.708-8.282,8.282-8.282&#10;&#9;&#9;h101.455c4.574,0,8.282,3.708,8.282,8.282v92.565C449.617,273.845,445.909,277.553,441.335,277.553z"/>
	<path style="fill:#FF982A;" d="M441.335,168.425h-20.145c4.574,0,8.282,3.708,8.282,8.282v92.565c0,4.574-3.708,8.282-8.282,8.282&#10;&#9;&#9;h20.145c4.574,0,8.282-3.708,8.282-8.282v-92.565C449.617,172.133,445.909,168.425,441.335,168.425z"/>
	<path style="fill:none;stroke:#000000;stroke-width:15;stroke-linecap:round;stroke-linejoin:round;stroke-miterlimit:10;" d="&#10;&#9;&#9;M441.335,277.553H339.88c-4.574,0-8.282-3.708-8.282-8.282v-92.565c0-4.574,3.708-8.282,8.282-8.282h101.455&#10;&#9;&#9;c4.574,0,8.282,3.708,8.282,8.282v92.565C449.617,273.845,445.909,277.553,441.335,277.553z"/>
	<rect x="374.314" y="168.425" style="fill:#4F6C77;" width="32.587" height="38.813"/>
	
		<rect x="374.314" y="168.425" style="fill:none;stroke:#000000;stroke-width:15;stroke-linecap:round;stroke-linejoin:round;stroke-miterlimit:10;" width="32.587" height="38.813"/>
	<rect x="374.314" y="394.17" style="fill:#4F6C77;" width="24.881" height="86.124"/>
	<rect x="217.232" y="394.17" style="fill:#4F6C77;" width="24.881" height="86.124"/>
	<rect x="38.314" y="375.674" style="fill:#4F6C77;" width="24.881" height="104.619"/>
	<rect x="38.314" y="375.674" style="fill:#395A61;" width="24.881" height="18.495"/>
	<rect x="217.232" y="394.17" style="fill:#395A61;" width="24.881" height="18.495"/>
	<rect x="374.314" y="394.17" style="fill:#395A61;" width="24.881" height="18.495"/>
	
		<rect x="374.314" y="394.17" style="fill:none;stroke:#000000;stroke-width:15;stroke-linecap:round;stroke-linejoin:round;stroke-miterlimit:10;" width="24.881" height="86.124"/>
	
		<rect x="217.232" y="394.17" style="fill:none;stroke:#000000;stroke-width:15;stroke-linecap:round;stroke-linejoin:round;stroke-miterlimit:10;" width="24.881" height="86.124"/>
	
		<rect x="38.314" y="375.674" style="fill:none;stroke:#000000;stroke-width:15;stroke-linecap:round;stroke-linejoin:round;stroke-miterlimit:10;" width="24.881" height="104.619"/>
	<path style="fill:#F4F8F9;" d="M168.017,216.396H43.35c-3.15,0-5.703-2.553-5.703-5.703V148.9c0-3.15,2.553-5.703,5.703-5.703&#10;&#9;&#9;h124.667c3.15,0,5.703,2.553,5.703,5.703v61.792C173.72,213.842,171.167,216.396,168.017,216.396z"/>
	<path style="fill:#E7EEF3;" d="M168.017,143.197h-19.351c3.15,0,5.703,2.553,5.703,5.703v61.792c0,3.15-2.553,5.703-5.703,5.703&#10;&#9;&#9;h19.351c3.15,0,5.703-2.553,5.703-5.703V148.9C173.72,145.75,171.167,143.197,168.017,143.197z"/>
	<path style="fill:none;stroke:#000000;stroke-width:15;stroke-linecap:round;stroke-linejoin:round;stroke-miterlimit:10;" d="&#10;&#9;&#9;M168.017,216.396H43.35c-3.15,0-5.703-2.553-5.703-5.703V148.9c0-3.15,2.553-5.703,5.703-5.703h124.667&#10;&#9;&#9;c3.15,0,5.703,2.553,5.703,5.703v61.792C173.72,213.842,171.167,216.396,168.017,216.396z"/>
	<path style="fill:#4F6C77;" d="M154.895,113.436H56.472V95.693c0-4.616,3.742-8.358,8.358-8.358h81.706&#10;&#9;&#9;c4.616,0,8.358,3.742,8.358,8.358V113.436z"/>
	<path style="fill:none;stroke:#000000;stroke-width:15;stroke-linecap:round;stroke-linejoin:round;stroke-miterlimit:10;" d="&#10;&#9;&#9;M154.895,113.436H56.472V95.693c0-4.616,3.742-8.358,8.358-8.358h81.706c4.616,0,8.358,3.742,8.358,8.358V113.436z"/>
	<path style="fill:#FF6C53;" d="M123.954,74.243l15.417-5.014h0v-3.835c0-18.605-15.083-33.688-33.688-33.688l0,0&#10;&#9;&#9;c-18.605,0-33.688,15.083-33.688,33.688v3.835l29.954,9.053L123.954,74.243z"/>
	<rect x="71.995" y="69.229" style="fill:#FF534A;" width="67.376" height="18.105"/>
	<path style="fill:none;stroke:#000000;stroke-width:15;stroke-linecap:round;stroke-linejoin:round;stroke-miterlimit:10;" d="&#10;&#9;&#9;M72.662,58.705c-0.436,2.162-0.667,4.398-0.667,6.689v21.94h67.376v-21.94c0-18.605-15.083-33.688-33.688-33.688l0,0&#10;&#9;&#9;c-5.393,0-10.486,1.274-15.006,3.527"/>
	<g>
		
			<line style="fill:none;stroke:#000000;stroke-width:15;stroke-linecap:round;stroke-linejoin:round;stroke-miterlimit:10;" x1="50.754" y1="253.252" x2="66.718" y2="253.252"/>
		
			<line style="fill:none;stroke:#000000;stroke-width:15;stroke-linecap:round;stroke-linejoin:round;stroke-miterlimit:10;" x1="97.702" y1="253.252" x2="113.665" y2="253.252"/>
		
			<line style="fill:none;stroke:#000000;stroke-width:15;stroke-linecap:round;stroke-linejoin:round;stroke-miterlimit:10;" x1="144.649" y1="253.252" x2="160.612" y2="253.252"/>
	</g>
	<g>
		
			<line style="fill:none;stroke:#000000;stroke-width:15;stroke-linecap:round;stroke-linejoin:round;stroke-miterlimit:10;" x1="50.754" y1="292.885" x2="66.718" y2="292.885"/>
		
			<line style="fill:none;stroke:#000000;stroke-width:15;stroke-linecap:round;stroke-linejoin:round;stroke-miterlimit:10;" x1="97.702" y1="292.885" x2="113.665" y2="292.885"/>
		
			<line style="fill:none;stroke:#000000;stroke-width:15;stroke-linecap:round;stroke-linejoin:round;stroke-miterlimit:10;" x1="144.649" y1="292.885" x2="160.612" y2="292.885"/>
	</g>
	<g>
		
			<line style="fill:none;stroke:#000000;stroke-width:15;stroke-linecap:round;stroke-linejoin:round;stroke-miterlimit:10;" x1="50.754" y1="332.518" x2="66.718" y2="332.518"/>
		
			<line style="fill:none;stroke:#000000;stroke-width:15;stroke-linecap:round;stroke-linejoin:round;stroke-miterlimit:10;" x1="97.702" y1="332.518" x2="113.665" y2="332.518"/>
		
			<line style="fill:none;stroke:#000000;stroke-width:15;stroke-linecap:round;stroke-linejoin:round;stroke-miterlimit:10;" x1="144.649" y1="332.518" x2="160.612" y2="332.518"/>
	</g>
	<path style="fill:none;stroke:#000000;stroke-width:15;stroke-linecap:round;stroke-linejoin:round;stroke-miterlimit:10;" d="&#10;&#9;&#9;M331.599,394.17h70.264c7.733,0,14.976-3.785,19.39-10.134l23.079-33.187H203.867v37.033c0,3.473,2.815,6.288,6.288,6.288h92.444"/>
	<path style="fill:none;stroke:#000000;stroke-width:15;stroke-linecap:round;stroke-linejoin:round;stroke-miterlimit:10;" d="&#10;&#9;&#9;M7.5,310.294v57.68c0,4.253,3.448,7.701,7.701,7.701h188.666V121.797c0-4.618-3.743-8.361-8.361-8.361H15.861&#10;&#9;&#9;c-4.618,0-8.361,3.743-8.361,8.361v159.497"/>
</g>















</svg>
