<svg height="512pt" viewBox="0 -31 512 512" width="512pt" xmlns="http://www.w3.org/2000/svg"><path d="m87.5 353.167969h337v30h-337zm0 0" fill="#d6faff"/><path d="m97.5 233.167969h-30v60l15 50 15-50zm0 0" fill="#b9d8dd"/><path d="m67.5 293.167969h30v150h-30zm0 0" fill="#d6faff"/><path d="m376.667969 7.5h-37.835938v105.667969h67.835938l30-82.832031zm0 0" fill="#ff986d"/><path d="m436.667969 60.335938-30-52.835938h-30v52.835938zm0 0" fill="#ffebbe"/><path d="m406.667969 7.5h37.832031v105.667969h-37.832031zm0 0" fill="#ff6f44"/><path d="m241 7.5h-37.832031v105.667969h67.832031l30-82.832031zm0 0" fill="#ff986d"/><path d="m301 60.335938-30-52.835938h-30v52.835938zm0 0" fill="#ffebbe"/><path d="m271 7.5h37.832031v105.667969h-37.832031zm0 0" fill="#ff6f44"/><path d="m105.332031 7.5h-37.832031v105.667969h67.832031l30-82.832031zm0 0" fill="#ff986d"/><path d="m165.332031 60.335938-30-52.835938h-30v52.835938zm0 0" fill="#ffebbe"/><path d="m135.332031 7.5h37.832031v105.667969h-37.832031zm0 0" fill="#ff6f44"/><path d="m444.5 233.167969h-30v60l15 50 15-50zm0 0" fill="#b9d8dd"/><path d="m414.5 293.167969h30v150h-30zm0 0" fill="#d6faff"/><path d="m444.5 143.167969h-30v120h30c33.136719 0 60-26.863281 60-60s-26.863281-60-60-60zm0 0" fill="#809399"/><path d="m474.5 203.167969c0-33.136719-26.863281-60-60-60h-347c-33.136719 0-60 26.863281-60 60s26.863281 60 60 60h347c33.136719 0 60-26.863281 60-60zm0 0" fill="#9cb5bb"/><path d="m67.5 173.167969h377v60h-377zm0 0" fill="#637176"/><g fill="#d6faff"><path d="m474.5 203.167969c0 16.566406-13.429688 30-30 30s-30-13.433594-30-30c0-16.570313 13.429688-30 30-30s30 13.429687 30 30zm0 0"/><path d="m97.5 203.167969c0 16.566406-13.429688 30-30 30s-30-13.433594-30-30c0-16.570313 13.429688-30 30-30s30 13.429687 30 30zm0 0"/><path d="m286 203.167969c0 16.566406-13.429688 30-30 30s-30-13.433594-30-30c0-16.570313 13.429688-30 30-30s30 13.429687 30 30zm0 0"/></g><path d="m338.832031 120.667969h105.667969c4.144531 0 7.5-3.355469 7.5-7.5v-105.667969c0-4.144531-3.355469-7.5-7.5-7.5h-105.667969c-4.140625 0-7.5 3.355469-7.5 7.5v105.667969c0 4.144531 3.359375 7.5 7.5 7.5zm45.335938-105.667969h15v37.835938h-15zm-37.835938 0h22.835938v45.335938c0 4.140624 3.355469 7.5 7.5 7.5h30c4.140625 0 7.5-3.359376 7.5-7.5v-45.335938h22.832031v90.667969h-90.667969zm0 0"/><path d="m67.5 120.667969h105.667969c4.140625 0 7.5-3.355469 7.5-7.5v-105.667969c0-4.144531-3.359375-7.5-7.5-7.5h-105.667969c-4.140625 0-7.5 3.355469-7.5 7.5v105.667969c0 4.144531 3.359375 7.5 7.5 7.5zm45.332031-105.667969h15v37.835938h-15zm-37.832031 0h22.832031v45.335938c0 4.140624 3.359375 7.5 7.5 7.5h30c4.144531 0 7.5-3.359376 7.5-7.5v-45.335938h22.832031v90.667969h-90.664062zm0 0"/><path d="m203.167969 120.667969h105.667969c4.140624 0 7.5-3.355469 7.5-7.5v-105.667969c0-4.144531-3.359376-7.5-7.5-7.5h-105.667969c-4.144531 0-7.5 3.355469-7.5 7.5v105.667969c0 4.144531 3.355469 7.5 7.5 7.5zm45.332031-105.667969h15v37.835938h-15zm-37.832031 0h22.832031v45.335938c0 4.140624 3.359375 7.5 7.5 7.5h30c4.144531 0 7.5-3.359376 7.5-7.5v-45.335938h22.832031v90.667969h-90.667969v-90.667969zm0 0"/><path d="m452 203.167969c0 4.140625-3.359375 7.5-7.5 7.5s-7.5-3.359375-7.5-7.5c0-4.144531 3.359375-7.5 7.5-7.5s7.5 3.355469 7.5 7.5zm0 0"/><path d="m75 203.167969c0 4.140625-3.359375 7.5-7.5 7.5s-7.5-3.359375-7.5-7.5c0-4.144531 3.359375-7.5 7.5-7.5s7.5 3.355469 7.5 7.5zm0 0"/><path d="m263.5 203.167969c0 4.140625-3.359375 7.5-7.5 7.5s-7.5-3.359375-7.5-7.5c0-4.144531 3.359375-7.5 7.5-7.5s7.5 3.355469 7.5 7.5zm0 0"/><path d="m512 203.167969c0-37.21875-30.28125-67.5-67.5-67.5h-377c-37.21875 0-67.5 30.28125-67.5 67.5 0 34.683593 26.296875 63.328125 60 67.074219v165.425781h-7.5c-4.140625 0-7.5 3.355469-7.5 7.5s3.359375 7.5 7.5 7.5h60c4.140625 0 7.5-3.355469 7.5-7.5s-3.359375-7.5-7.5-7.5h-7.5v-45h302v45h-7.5c-4.144531 0-7.5 3.355469-7.5 7.5s3.355469 7.5 7.5 7.5h60c4.144531 0 7.5-3.355469 7.5-7.5s-3.355469-7.5-7.5-7.5h-7.5v-165.425781c33.703125-3.746094 60-32.390626 60-67.074219zm-497 0c0-28.949219 23.550781-52.5 52.5-52.5h377c28.949219 0 52.5 23.550781 52.5 52.5s-23.550781 52.5-52.5 52.5h-377c-28.949219 0-52.5-23.550781-52.5-52.5zm90 172.5v-15h302v15zm317 60v-142.5c0-4.144531-3.355469-7.5-7.5-7.5s-7.5 3.355469-7.5 7.5v52.5h-302v-52.5c0-4.144531-3.359375-7.5-7.5-7.5s-7.5 3.355469-7.5 7.5v142.5h-15v-165h362v165zm0 0"/><path d="m146.75 240.667969c4.140625 0 7.5-3.355469 7.5-7.5s-3.359375-7.5-7.5-7.5h-49.269531c4.71875-6.273438 7.519531-14.0625 7.519531-22.5s-2.800781-16.226563-7.519531-22.5h128.539062c-4.71875 6.273437-7.519531 14.0625-7.519531 22.5s2.800781 16.226562 7.519531 22.5h-49.269531c-4.140625 0-7.5 3.355469-7.5 7.5s3.359375 7.5 7.5 7.5h267.75c20.679688 0 37.5-16.820313 37.5-37.5 0-20.679688-16.820312-37.5-37.5-37.5h-377c-20.679688 0-37.5 16.820312-37.5 37.5 0 20.679687 16.820312 37.5 37.5 37.5zm86.75-37.5c0-12.40625 10.09375-22.5 22.5-22.5s22.5 10.09375 22.5 22.5-10.09375 22.5-22.5 22.5-22.5-10.09375-22.5-22.5zm52.480469-22.5h128.539062c-4.71875 6.273437-7.519531 14.0625-7.519531 22.5s2.800781 16.226562 7.519531 22.5h-128.539062c4.71875-6.273438 7.519531-14.0625 7.519531-22.5s-2.800781-16.226563-7.519531-22.5zm181.019531 22.5c0 12.40625-10.09375 22.5-22.5 22.5s-22.5-10.09375-22.5-22.5 10.09375-22.5 22.5-22.5 22.5 10.09375 22.5 22.5zm-422 0c0-12.40625 10.09375-22.5 22.5-22.5s22.5 10.09375 22.5 22.5-10.09375 22.5-22.5 22.5-22.5-10.09375-22.5-22.5zm0 0"/></svg>