<svg id="Layer_1_1_" enable-background="new 0 0 64 64" height="512" viewBox="0 0 64 64" width="512" xmlns="http://www.w3.org/2000/svg"><g><path d="m62 44-7 6v-3h-9.82c-3.788 0-7.25-2.14-8.944-5.528l-4.854-9.708c-.847-1.694-2.578-2.764-4.472-2.764h-5.91v-6h6.82c3.788 0 7.25 2.14 8.944 5.528l4.854 9.708c.847 1.694 2.578 2.764 4.472 2.764h8.91v-3z" fill="#f96177"/></g><g><path d="m62 21-7-6v3h-9.82c-3.788 0-7.25 2.14-8.944 5.528l-4.854 9.708c-.847 1.694-2.578 2.764-4.472 2.764h-5.91v6h6.82c3.788 0 7.25-2.14 8.944-5.528l4.854-9.708c.847-1.694 2.578-2.764 4.472-2.764h8.91v3z" fill="#f94660"/></g><g><path d="m19.521 14.706c.148-.413.516-.706.955-.706h1.524v-4h-1.524c-.439 0-.807-.293-.955-.706-.086-.239-.182-.472-.289-.699-.187-.397-.134-.864.177-1.175l1.077-1.077-2.828-2.828-1.078 1.077c-.31.31-.778.364-1.175.177-.227-.107-.461-.204-.699-.289-.413-.149-.706-.517-.706-.956v-1.524h-4v1.524c0 .439-.293.807-.706.955-.238.086-.471.182-.699.29-.397.187-.864.133-1.175-.177l-1.077-1.077-2.828 2.828 1.077 1.077c.31.31.364.778.177 1.175-.108.228-.204.461-.29.699-.148.413-.516.706-.955.706h-1.524v4h1.524c.439 0 .807.293.955.706.086.239.182.472.289.699.187.397.134.864-.177 1.175l-1.077 1.077 2.828 2.828 1.077-1.077c.31-.31.778-.364 1.175-.177.227.107.461.204.699.289.414.149.707.517.707.956v1.524h4v-1.524c0-.439.293-.807.706-.955.239-.086.472-.182.699-.289.397-.187.864-.134 1.175.177l1.077 1.077 2.828-2.828-1.077-1.077c-.31-.31-.364-.778-.177-1.175.108-.229.204-.462.29-.7zm-7.521 1.294c-2.209 0-4-1.791-4-4s1.791-4 4-4 4 1.791 4 4-1.791 4-4 4z" fill="#777"/></g><g><path d="m19.521 54.706c.148-.413.516-.706.955-.706h1.524v-4h-1.524c-.439 0-.807-.293-.955-.706-.086-.239-.182-.472-.289-.699-.187-.397-.134-.864.177-1.175l1.077-1.077-2.828-2.828-1.077 1.077c-.31.31-.778.364-1.175.177-.227-.107-.461-.204-.699-.289-.414-.149-.707-.517-.707-.956v-1.524h-4v1.524c0 .439-.293.807-.706.955-.239.086-.472.182-.699.289-.397.187-.864.134-1.175-.177l-1.077-1.077-2.828 2.828 1.077 1.077c.31.31.364.778.177 1.175-.107.227-.204.461-.289.699-.149.414-.517.707-.956.707h-1.524v4h1.524c.439 0 .807.293.955.706.086.239.182.472.289.699.187.397.134.864-.177 1.175l-1.077 1.077 2.828 2.828 1.077-1.077c.31-.31.778-.364 1.175-.177.227.107.461.204.699.289.414.149.707.517.707.956v1.524h4v-1.524c0-.439.293-.807.706-.955.239-.086.472-.182.699-.289.397-.187.864-.134 1.175.177l1.077 1.077 2.828-2.828-1.077-1.077c-.31-.31-.364-.778-.177-1.175.108-.229.204-.462.29-.7zm-7.521 1.294c-2.209 0-4-1.791-4-4s1.791-4 4-4 4 1.791 4 4-1.791 4-4 4z" fill="#777"/></g><g><path d="m16 27h2v2h-2z" fill="#545454"/></g><g><path d="m12 27h2v2h-2z" fill="#545454"/></g><g><path d="m16 36h2v2h-2z" fill="#545454"/></g><g><path d="m12 36h2v2h-2z" fill="#545454"/></g><g><path d="m8 27h2v2h-2z" fill="#545454"/></g><g><path d="m4 27h2v2h-2z" fill="#545454"/></g><g><path d="m8 36h2v2h-2z" fill="#545454"/></g><g><path d="m4 36h2v2h-2z" fill="#545454"/></g></svg>