<?xml version="1.0" encoding="UTF-8" standalone="no"?>
<!-- Created with Inkscape (http://www.inkscape.org/) -->

<svg
   version="1.1"
   id="svg1923"
   xml:space="preserve"
   width="682.66669"
   height="682.66669"
   viewBox="0 0 682.66669 682.66669"
   xmlns="http://www.w3.org/2000/svg"
   xmlns:svg="http://www.w3.org/2000/svg"><defs
     id="defs1927"><clipPath
       clipPathUnits="userSpaceOnUse"
       id="clipPath1937"><path
         d="M 0,512 H 512 V 0 H 0 Z"
         id="path1935" /></clipPath></defs><g
     id="g1929"
     transform="matrix(1.3333333,0,0,-1.3333333,0,682.66667)"><g
       id="g1931"><g
         id="g1933"
         clip-path="url(#clipPath1937)"><g
           id="g1939"
           transform="translate(410.5654,284.6162)"><path
             d="m 0,0 c -0.83,0.31 -1.391,1.088 -1.407,1.974 l -0.011,0.547 v 31.547 l 5.969,25.245 c 1.144,4.841 -2.528,9.482 -7.502,9.482 h -93.818 c -4.974,0 -8.646,-4.641 -7.502,-9.482 l 5.969,-25.245 V 2.521 c 0,-0.91 -0.574,-1.716 -1.43,-2.025 -55.926,-20.187 -95.869,-73.808 -95.676,-136.74 0.245,-79.928 64.932,-144.408 144.862,-144.407 80.004,0.001 144.859,64.857 144.859,144.861 C 94.313,-73.566 55.078,-20.511 0,0"
             style="fill:#c7f0fe;fill-opacity:1;fill-rule:nonzero;stroke:none"
             id="path1941" /></g><g
           id="g1943"
           transform="translate(243.1699,128.1421)"><path
             d="m 0,0 c -0.18,59.007 34.924,109.828 85.405,132.579 7.079,3.19 11.701,10.15 11.701,17.914 v 13.69 c 0,4.072 -0.472,8.13 -1.41,12.093 l -0.25,1.058 c -3.343,14.144 7.385,27.705 21.918,27.705 h 52.041 l 2.541,10.748 c 1.145,4.841 -2.527,9.483 -7.502,9.483 H 70.627 c -4.975,0 -8.647,-4.642 -7.502,-9.483 l 5.969,-25.245 v -31.546 c 0,-0.911 -0.574,-1.716 -1.431,-2.026 C 11.737,136.783 -28.205,83.163 -28.013,20.231 -27.846,-34.218 2.23,-81.488 46.654,-106.099 18.065,-79.744 0.129,-42.009 0,0"
             style="fill:#9ae6fb;fill-opacity:1;fill-rule:nonzero;stroke:none"
             id="path1945" /></g><g
           id="g1947"
           transform="translate(305.2617,161.3232)"><path
             d="M 0,0 23.641,11.701 C 50.106,24.8 81.047,25.364 107.974,13.237 122.536,6.678 138.319,3.814 153.967,4.68 l 7.653,0.983 c 3.621,0.465 6.906,-2.183 7.21,-5.821 0.261,-3.119 0.393,-6.265 0.393,-9.433 0,-59.777 -46.336,-108.933 -104.977,-113.441 H -26.525 V -2.053 Z"
             style="fill:#6cf5c2;fill-opacity:1;fill-rule:nonzero;stroke:none"
             id="path1949" /></g><g
           id="g1951"
           transform="translate(385.2588,40.6255)"><path
             d="m 0,0 c 1.73,12.62 -1.063,25.548 -8.317,36.84 l -58.153,90.553 -13.527,-6.695 -26.525,-2.053 V -2.334 h 90.771 C -10.389,-1.922 -5.131,-1.133 0,0"
             style="fill:#00f2a6;fill-opacity:1;fill-rule:nonzero;stroke:none"
             id="path1953" /></g><g
           id="g1955"
           transform="translate(383.3164,19.1528)"><path
             d="m 0,0 c 10.654,19.507 9.844,42.317 -2.167,61.014 l -114.962,179.014 c -31.329,-26.659 -51.166,-66.416 -51.03,-110.808 0.245,-79.929 64.932,-144.409 144.862,-144.408 4.09,0 8.137,0.179 12.141,0.511 C -6.807,-10.481 -3.037,-5.562 0,0"
             style="fill:#9ae6fb;fill-opacity:1;fill-rule:nonzero;stroke:none"
             id="path1957" /></g><g
           id="g1959"
           transform="translate(390.457,41.9033)"><path
             d="m 0,0 c 1.359,13.152 -1.764,26.519 -9.308,38.264 l -57.851,90.083 -18.036,-8.927 -26.526,-2.053 V -3.612 h 90.772 C -13.76,-3.06 -6.758,-1.832 0,0"
             style="fill:#05e29c;fill-opacity:1;fill-rule:nonzero;stroke:none"
             id="path1961" /></g><g
           id="g1963"
           transform="translate(364.3203,69.3599)"><path
             d="M 0,0 C 17.029,-26.51 -2.011,-61.36 -33.511,-61.36 H -316.84 c -31.5,0 -50.54,34.85 -33.511,61.36 l 117.064,182.286 c 2.152,3.352 3.297,7.252 3.297,11.235 V 296.02 h 109.63 V 193.521 c 0,-3.983 1.144,-7.883 3.297,-11.235 z"
             style="fill:#dff6fe;fill-opacity:1;fill-rule:nonzero;stroke:none"
             id="path1965" /></g><g
           id="g1967"
           transform="translate(206.377,350.9639)"><path
             d="m 0,0 v 6.564 h -72.047 v -94.647 c 0,-3.983 -1.144,-7.883 -3.297,-11.235 l -117.063,-182.286 c -17.03,-26.51 2.011,-61.36 33.511,-61.36 h 48.056 c -15.58,11.845 -21.517,34.667 -9.511,53.359 l 117.064,182.286 c 2.152,3.351 3.297,7.251 3.297,11.235 L 0.01,0 Z"
             style="fill:#c7f0fe;fill-opacity:1;fill-rule:nonzero;stroke:none"
             id="path1969" /></g><g
           id="g1971"
           transform="translate(339.0801,53.1499)"><path
             d="m 0,0 c 2.74,-4.27 1.4,-8.12 0.36,-10.03 -1.05,-1.91 -3.56,-5.12 -8.631,-5.12 H -291.6 c -5.07,0 -7.58,3.21 -8.63,5.12 -1.041,1.91 -2.38,5.76 0.36,10.03 l 88.254,137.407 c 2.038,3.173 5.558,5.071 9.33,5.066 12.338,-0.014 24.65,-1.945 36.486,-5.793 v -0.01 c 22.609,-7.345 46.758,-7.693 69.35,-1.211 4.713,1.353 9.757,-0.475 12.406,-4.6 z"
             style="fill:#fe9a9f;fill-opacity:1;fill-rule:nonzero;stroke:none"
             id="path1973" /></g><g
           id="g1975"
           transform="translate(339.0801,53.1499)"><path
             d="m 0,0 c 2.74,-4.27 1.4,-8.12 0.36,-10.03 -1.05,-1.91 -3.56,-5.12 -8.631,-5.12 H -291.6 c -5.07,0 -7.58,3.21 -8.63,5.12 -1.041,1.91 -2.38,5.76 0.36,10.03 l 88.254,137.407 c 2.038,3.173 5.558,5.071 9.33,5.066 12.338,-0.014 24.65,-1.945 36.486,-5.793 v -0.01 c 22.609,-7.345 46.758,-7.693 69.35,-1.211 4.713,1.353 9.757,-0.475 12.406,-4.6 z"
             style="fill:#fe9a9f;fill-opacity:1;fill-rule:nonzero;stroke:none"
             id="path1977" /></g><g
           id="g1979"
           transform="translate(86.0264,61.3584)"><path
             d="m 0,0 83.278,129.678 c -10.606,3.039 -21.548,4.574 -32.51,4.587 -3.771,0.004 -7.292,-1.893 -9.33,-5.067 L -46.816,-8.208 c -2.741,-4.271 -1.4,-8.12 -0.361,-10.03 1.051,-1.91 3.561,-5.12 8.631,-5.12 H -6.323 C -6.712,-15.554 -4.785,-7.449 0,0"
             style="fill:#fd8087;fill-opacity:1;fill-rule:nonzero;stroke:none"
             id="path1981" /></g><g
           id="g1983"
           transform="translate(339.0801,53.1499)"><path
             d="m 0,0 c 2.74,-4.27 1.4,-8.12 0.36,-10.03 -1.05,-1.91 -3.56,-5.12 -8.631,-5.12 H -291.6 c -5.07,0 -7.58,3.21 -8.63,5.12 -1.041,1.91 -2.38,5.76 0.36,10.03 l 25.94,40.38 44.119,10.46 c 21.171,5.02 43.321,4.11 64.011,-2.62 11.95,-3.88 24.33,-5.81 36.68,-5.81 16.88,0 33.7,3.59 49.3,10.73 l 34.49,15.77 0.76,0.49 z"
             style="fill:#fd8087;fill-opacity:1;fill-rule:nonzero;stroke:none"
             id="path1985" /></g><g
           id="g1987"
           transform="translate(86.0264,61.3584)"><path
             d="m 0,0 28.033,43.651 c -1.6,-0.31 -3.198,-0.642 -4.79,-1.019 l -44.119,-10.46 -25.94,-40.38 c -2.741,-4.271 -1.4,-8.12 -0.361,-10.03 1.051,-1.91 3.561,-5.12 8.631,-5.12 H -6.323 C -6.712,-15.554 -4.785,-7.449 0,0"
             style="fill:#fe646e;fill-opacity:1;fill-rule:nonzero;stroke:none"
             id="path1989" /></g><g
           id="g1991"
           transform="translate(241.75,351.3848)"><path
             d="m 0,0 h -105.209 c -7.87,0 -14.25,6.38 -14.25,14.25 0,7.87 6.38,14.25 14.25,14.25 H 0 C 7.87,28.5 14.25,22.12 14.25,14.25 14.25,6.38 7.87,0 0,0"
             style="fill:#9ae6fb;fill-opacity:1;fill-rule:nonzero;stroke:none"
             id="path1993" /></g><g
           id="g1995"
           transform="translate(422.5625,116.8135)"><path
             d="m 0,0 c 0,-12.022 -9.746,-21.769 -21.769,-21.769 -12.022,0 -21.768,9.747 -21.768,21.769 0,12.022 9.746,21.769 21.768,21.769 C -9.746,21.769 0,12.022 0,0"
             style="fill:#05e29c;fill-opacity:1;fill-rule:nonzero;stroke:none"
             id="path1997" /></g><g
           id="g1999"
           transform="translate(176.998,147.8706)"><path
             d="m 0,0 c 0,-9.018 -7.31,-16.328 -16.328,-16.328 -9.018,0 -16.328,7.31 -16.328,16.328 0,9.018 7.31,16.328 16.328,16.328 C -7.31,16.328 0,9.018 0,0"
             style="fill:#fd8087;fill-opacity:1;fill-rule:nonzero;stroke:none"
             id="path2001" /></g><g
           id="g2003"
           transform="translate(212.9639,436.9307)"><path
             d="m 0,0 c 0,-13.154 -10.663,-23.818 -23.817,-23.818 -13.156,0 -23.819,10.664 -23.819,23.818 0,13.155 10.663,23.818 23.819,23.818 C -10.663,23.818 0,13.155 0,0"
             style="fill:#fe9a9f;fill-opacity:1;fill-rule:nonzero;stroke:none"
             id="path2005" /></g><g
           id="g2007"
           transform="translate(384.7354,414.1245)"><path
             d="m 0,0 c 0,-13.155 -10.664,-23.818 -23.818,-23.818 -13.155,0 -23.818,10.663 -23.818,23.818 0,13.154 10.663,23.818 23.818,23.818 C -10.664,23.818 0,13.154 0,0"
             style="fill:#9cf8d3;fill-opacity:1;fill-rule:nonzero;stroke:none"
             id="path2009" /></g><g
           id="g2011"
           transform="translate(144.7207,487.7964)"><path
             d="m 0,0 c 0,-8.918 -7.229,-16.147 -16.147,-16.147 -8.917,0 -16.147,7.229 -16.147,16.147 0,8.917 7.23,16.146 16.147,16.146 C -7.229,16.146 0,8.917 0,0"
             style="fill:#fe9a9f;fill-opacity:1;fill-rule:nonzero;stroke:none"
             id="path2013" /></g><g
           id="g2015"
           transform="translate(134.334,286.1938)"><path
             d="m 0,0 v -29.417 l -120.366,-187.418 c -17.027,-26.51 2.009,-61.358 33.515,-61.358 h 283.325 c 31.506,0 50.542,34.848 33.516,61.358 l -75.566,117.661"
             style="fill:none;stroke:#000000;stroke-width:15;stroke-linecap:round;stroke-linejoin:round;stroke-miterlimit:10;stroke-dasharray:none;stroke-opacity:1"
             id="path2017" /></g><g
           id="g2019"
           transform="translate(271.4863,213.9141)"><path
             d="m 0,0 -27.528,42.863 v 94.608 h -109.624 v -33.229"
             style="fill:none;stroke:#000000;stroke-width:15;stroke-linecap:round;stroke-linejoin:round;stroke-miterlimit:10;stroke-dasharray:none;stroke-opacity:1"
             id="path2021" /></g><g
           id="g2023"
           transform="translate(339.082,53.147)"><path
             d="m 0,0 -88.629,138 c -24.769,-9.002 -51.933,-9.531 -77.168,-1.322 h -0.001 c -13.815,4.494 -28.278,6.377 -42.668,5.649 L -299.872,0 c -2.742,-4.271 -1.399,-8.115 -0.356,-10.027 1.044,-1.912 3.554,-5.119 8.629,-5.119 H -8.274 c 5.075,0 7.586,3.208 8.629,5.119 C 1.399,-8.115 2.742,-4.27 0,0 Z"
             style="fill:none;stroke:#000000;stroke-width:15;stroke-linecap:round;stroke-linejoin:round;stroke-miterlimit:10;stroke-dasharray:none;stroke-opacity:1"
             id="path2025" /></g><g
           id="g2027"
           transform="translate(65.1465,93.5322)"><path
             d="m 0,0 44.119,10.457 c 21.176,5.02 43.324,4.113 64.019,-2.619 28.263,-9.194 58.949,-7.437 85.978,4.923 l 34.491,15.771"
             style="fill:none;stroke:#000000;stroke-width:15;stroke-linecap:round;stroke-linejoin:round;stroke-miterlimit:10;stroke-dasharray:none;stroke-opacity:1"
             id="path2029" /></g><g
           id="g2031"
           transform="translate(341.002,9.3032)"><path
             d="m 0,0 c 6.443,-0.883 13.019,-1.35 19.703,-1.35 79.408,0 143.779,64.372 143.779,143.779 0,62.408 -39.764,115.522 -95.336,135.405 v 31.547 l 5.968,25.245 c 1.145,4.841 -2.527,9.482 -7.501,9.482 h -93.818 c -4.975,0 -8.647,-4.641 -7.502,-9.482 l 5.969,-25.245 v -31.547 c -23.813,-8.52 -44.718,-23.145 -60.84,-41.984"
             style="fill:none;stroke:#000000;stroke-width:15;stroke-linecap:round;stroke-linejoin:round;stroke-miterlimit:10;stroke-dasharray:none;stroke-opacity:1"
             id="path2033" /></g><g
           id="g2035"
           transform="translate(241.75,351.3848)"><path
             d="m 0,0 h -105.209 c -7.87,0 -14.25,6.38 -14.25,14.25 0,7.87 6.38,14.25 14.25,14.25 H 0 C 7.87,28.5 14.25,22.12 14.25,14.25 14.25,6.38 7.87,0 0,0 Z"
             style="fill:none;stroke:#000000;stroke-width:15;stroke-linecap:round;stroke-linejoin:round;stroke-miterlimit:10;stroke-dasharray:none;stroke-opacity:1"
             id="path2037" /></g><g
           id="g2039"
           transform="translate(369.5078,38.291)"><path
             d="M 0,0 C 20.064,1.542 38.687,8.314 54.507,18.948"
             style="fill:none;stroke:#000000;stroke-width:15;stroke-linecap:round;stroke-linejoin:round;stroke-miterlimit:10;stroke-dasharray:none;stroke-opacity:1"
             id="path2041" /></g><g
           id="g2043"
           transform="translate(448.0918,78.9561)"><path
             d="m 0,0 c 16.469,19.74 26.393,45.119 26.393,72.776 0,3.168 -0.133,6.314 -0.393,9.433 -0.304,3.638 -3.589,6.286 -7.21,5.821 l -7.653,-0.983 c -15.648,-0.865 -31.431,1.999 -45.993,8.557 h -10e-4 c -26.926,12.127 -57.866,11.563 -84.332,-1.536 L -142.83,82.367"
             style="fill:none;stroke:#000000;stroke-width:15;stroke-linecap:round;stroke-linejoin:round;stroke-miterlimit:10;stroke-dasharray:none;stroke-opacity:1"
             id="path2045" /></g><g
           id="g2047"
           transform="translate(422.5625,116.8135)"><path
             d="m 0,0 c 0,-12.022 -9.746,-21.769 -21.769,-21.769 -12.022,0 -21.768,9.747 -21.768,21.769 0,12.022 9.746,21.769 21.768,21.769 C -9.746,21.769 0,12.022 0,0 Z"
             style="fill:none;stroke:#000000;stroke-width:15;stroke-linecap:round;stroke-linejoin:round;stroke-miterlimit:10;stroke-dasharray:none;stroke-opacity:1"
             id="path2049" /></g><g
           id="g2051"
           transform="translate(176.998,147.8706)"><path
             d="m 0,0 c 0,-9.018 -7.31,-16.328 -16.328,-16.328 -9.018,0 -16.328,7.31 -16.328,16.328 0,9.018 7.31,16.328 16.328,16.328 C -7.31,16.328 0,9.018 0,0 Z"
             style="fill:none;stroke:#000000;stroke-width:15;stroke-linecap:round;stroke-linejoin:round;stroke-miterlimit:10;stroke-dasharray:none;stroke-opacity:1"
             id="path2053" /></g><g
           id="g2055"
           transform="translate(212.9639,436.9307)"><path
             d="m 0,0 c 0,-13.154 -10.663,-23.818 -23.817,-23.818 -13.156,0 -23.819,10.664 -23.819,23.818 0,13.155 10.663,23.818 23.819,23.818 C -10.663,23.818 0,13.155 0,0 Z"
             style="fill:none;stroke:#000000;stroke-width:15;stroke-linecap:round;stroke-linejoin:round;stroke-miterlimit:10;stroke-dasharray:none;stroke-opacity:1"
             id="path2057" /></g><g
           id="g2059"
           transform="translate(384.7354,414.1245)"><path
             d="m 0,0 c 0,-13.155 -10.664,-23.818 -23.818,-23.818 -13.155,0 -23.818,10.663 -23.818,23.818 0,13.154 10.663,23.818 23.818,23.818 C -10.664,23.818 0,13.154 0,0 Z"
             style="fill:none;stroke:#000000;stroke-width:15;stroke-linecap:round;stroke-linejoin:round;stroke-miterlimit:10;stroke-dasharray:none;stroke-opacity:1"
             id="path2061" /></g><g
           id="g2063"
           transform="translate(144.7207,487.7964)"><path
             d="m 0,0 c 0,-8.918 -7.229,-16.147 -16.147,-16.147 -8.917,0 -16.147,7.229 -16.147,16.147 0,8.917 7.23,16.146 16.147,16.146 C -7.229,16.146 0,8.917 0,0 Z"
             style="fill:none;stroke:#000000;stroke-width:15;stroke-linecap:round;stroke-linejoin:round;stroke-miterlimit:10;stroke-dasharray:none;stroke-opacity:1"
             id="path2065" /></g></g></g></g></svg>
