<?xml version="1.0" encoding="UTF-8" standalone="no"?>
<svg
   id="Capa_1"
   enable-background="new 0 0 511.999 511.999"
   height="512"
   viewBox="0 0 511.999 511.999"
   width="512"
   version="1.1"
   sodipodi:docname="merge.svg"
   inkscape:version="1.3 (0e150ed6c4, 2023-07-21)"
   xmlns:inkscape="http://www.inkscape.org/namespaces/inkscape"
   xmlns:sodipodi="http://sodipodi.sourceforge.net/DTD/sodipodi-0.dtd"
   xmlns="http://www.w3.org/2000/svg"
   xmlns:svg="http://www.w3.org/2000/svg">
  <defs
     id="defs2" />
  <sodipodi:namedview
     id="namedview2"
     pagecolor="#ffffff"
     bordercolor="#000000"
     borderopacity="0.25"
     inkscape:showpageshadow="2"
     inkscape:pageopacity="0.0"
     inkscape:pagecheckerboard="0"
     inkscape:deskcolor="#d1d1d1"
     inkscape:zoom="3.5527344"
     inkscape:cx="255.85926"
     inkscape:cy="256"
     inkscape:window-width="3840"
     inkscape:window-height="2054"
     inkscape:window-x="2869"
     inkscape:window-y="-11"
     inkscape:window-maximized="1"
     inkscape:current-layer="Capa_1" />
  <path
     d="m 99.20269,475.00999 128.525,-144.287 h 103.273 v 44.724 c 0,12.528 14.499,19.524 24.306,11.764 l 151,-119.448 c 7.59,-6.003 7.585,-17.529 0,-23.528 l -151,-119.447 c -9.825,-7.772 -24.306,-0.743 -24.306,11.764 v 44.724 h -103.273 l -128.525,-144.287 c -5.728,-6.431 -15.687,-6.722 -21.783,-0.654 l -73.0000003,72.664 c -5.637,5.609 -5.915,14.64 -0.638,20.586 L 115.94769,255.99899 3.7816897,382.41299 c -5.278,5.949 -4.996,14.979 0.638,20.586 l 73.0000003,72.664 c 6.102,6.076 16.061,5.77 21.783,-0.653 z"
     fill="#fcbe29"
     id="path1" />
  <path
     d="m 77.41869,475.65899 -73.0000003,-72.66 c -5.63,-5.61 -5.92,-14.64 -0.64,-20.59 l 112.1700003,-126.41 h 396.05 c 0,4.38 -1.9,8.76 -5.69,11.76 l -151,119.45 c -9.81,7.76 -24.31,0.77 -24.31,-11.76 v -44.73 h -103.27 l -128.53,144.29 c -5.72,6.42 -15.68,6.73 -21.78,0.65 z"
     fill="#fe9022"
     id="path2" />
</svg>
