<svg id="Layer_1" enable-background="new 0 0 512 512" viewBox="0 0 512 512" xmlns="http://www.w3.org/2000/svg"><g><g><g><g><path clip-rule="evenodd" d="m383.85 56.984c11.853 0 21.52 9.667 21.52 21.52v395.976c0 11.853-9.668 21.52-21.52 21.52h-331.413c-11.853 0-21.52-9.668-21.52-21.52v-395.976c0-11.853 9.667-21.52 21.52-21.52z" fill="#eceff1" fill-rule="evenodd"/></g><g><path clip-rule="evenodd" d="m383.85 56.984c11.853 0 21.52 9.667 21.52 21.52v395.976c0 11.853-9.668 21.52-21.52 21.52h-10c11.853 0 21.52-9.668 21.52-21.52v-395.976c0-11.853-9.668-21.52-21.52-21.52z" fill="#d1d1d6" fill-rule="evenodd"/></g></g><g><g><ellipse clip-rule="evenodd" cx="405.188" cy="420.105" fill="#8ac9fe" fill-rule="evenodd" rx="75.895" ry="75.895" transform="matrix(.707 -.707 .707 .707 -178.382 409.557)"/></g><g><path clip-rule="evenodd" d="m405.188 344.21c-1.68 0-3.347.061-5 .168 39.584 2.575 70.895 35.492 70.895 75.727s-31.311 73.151-70.895 75.727c1.654.107 3.32.168 5 .168 41.916 0 75.895-33.979 75.895-75.895 0-41.915-33.979-75.895-75.895-75.895z" fill="#60b7ff" fill-rule="evenodd"/></g></g><g><path clip-rule="evenodd" d="m361.117 410.834c5.207-5.207 13.728-5.208 18.935 0l13.566 13.566 36.706-36.706c5.207-5.207 13.728-5.207 18.935 0 5.208 5.207 5.208 13.728 0 18.935l-45.912 45.912c-6.638 6.638-15.518 3.94-21.405-1.947l-20.825-20.825c-5.207-5.207-5.207-13.728 0-18.935z" fill="#eceff1" fill-rule="evenodd"/></g><g><g><path clip-rule="evenodd" d="m328.782 171.273h25.473c2.205 0 4.003 1.798 4.003 4.003v96.678c0 2.205-1.798 4.003-4.003 4.003h-25.473c-2.205 0-4.003-1.798-4.003-4.003v-96.678c.001-2.205 1.799-4.003 4.003-4.003z" fill="#6cf5c2" fill-rule="evenodd"/></g><g><path clip-rule="evenodd" d="m344.255 171.273h10c2.205 0 4.003 1.798 4.003 4.003v96.678c0 2.205-1.798 4.003-4.003 4.003h-10c2.205 0 4.003-1.798 4.003-4.003v-96.678c0-2.205-1.798-4.003-4.003-4.003z" fill="#00e499" fill-rule="evenodd"/></g></g><g><g><path clip-rule="evenodd" d="m292.092 132.973h-25.473c-2.205 0-4.003 1.798-4.003 4.003v134.978c0 2.205 1.798 4.003 4.003 4.003h25.473c2.205 0 4.003-1.798 4.003-4.003v-134.978c0-2.205-1.798-4.003-4.003-4.003z" fill="#8ac9fe" fill-rule="evenodd"/></g><g><path clip-rule="evenodd" d="m292.092 132.973h-10c2.205 0 4.003 1.798 4.003 4.003v134.978c0 2.205-1.798 4.003-4.003 4.003h10c2.205 0 4.003-1.798 4.003-4.003v-134.978c0-2.205-1.798-4.003-4.003-4.003z" fill="#60b7ff" fill-rule="evenodd"/></g></g><g><g><path clip-rule="evenodd" d="m229.928 205.21c-8.491 0-16.982 0-25.474 0-2.205 0-4.003 1.798-4.003 4.003v62.742c0 2.205 1.798 4.003 4.003 4.003h25.474c2.205 0 4.003-1.798 4.003-4.003 0-22.183 0-40.558 0-62.742-.001-2.205-1.799-4.003-4.003-4.003z" fill="#fe646f" fill-rule="evenodd"/></g><g><path clip-rule="evenodd" d="m229.928 205.21h-10c2.205 0 4.003 1.798 4.003 4.003v62.742c0 2.205-1.798 4.003-4.003 4.003h10c2.205 0 4.003-1.798 4.003-4.003 0-22.183 0-40.558 0-62.742-.001-2.205-1.799-4.003-4.003-4.003z" fill="#fd4755" fill-rule="evenodd"/></g></g><g><g><path clip-rule="evenodd" d="m140.293 43.976h38.547c2.171 0 4.017-1.315 4.727-3.366 4.958-14.324 18.565-24.61 34.577-24.61 16.011 0 29.618 10.286 34.577 24.61.71 2.051 2.557 3.366 4.727 3.366h38.547c2.756 0 5.003 2.247 5.003 5.003v45.948c0 2.756-2.247 5.003-5.003 5.003h-155.702c-2.755 0-5.003-2.247-5.003-5.003v-45.948c0-2.756 2.248-5.003 5.003-5.003z" fill="#e3a76f" fill-rule="evenodd"/></g><g><path clip-rule="evenodd" d="m290.997 43.976h4.997c2.756 0 5.003 2.247 5.003 5.003v45.948c0 2.756-2.247 5.003-5.003 5.003h-155.701c-2.755 0-5.003-2.247-5.003-5.003v-4.997h150.704c2.755 0 5.003-2.247 5.003-5.003z" fill="#c48958" fill-rule="evenodd"/></g></g><g><g><path clip-rule="evenodd" d="m120.238 190.528v-54.093c-29.875 0-54.093 24.218-54.093 54.093s24.218 54.093 54.093 54.093 54.093-24.218 54.093-54.093z" fill="#60b7ff" fill-rule="evenodd"/></g><g><path clip-rule="evenodd" d="m120.238 190.528h54.093c0 29.875-24.218 54.093-54.093 54.093-9.495 0-18.823-2.499-27.047-7.247z" fill="#ffd064" fill-rule="evenodd"/></g><g><path clip-rule="evenodd" d="m120.238 190.528v-43.855c-24.22 0-43.855 19.634-43.855 43.855 0 24.22 19.634 43.855 43.855 43.855s43.855-19.634 43.855-43.855z" fill="#8ac9fe" fill-rule="evenodd"/></g><g><path clip-rule="evenodd" d="m120.238 190.528h43.855c0 24.22-19.635 43.855-43.855 43.855-7.698 0-15.261-2.026-21.927-5.875z" fill="#ffe177" fill-rule="evenodd"/></g><g><g><path clip-rule="evenodd" d="m131.906 175.749v-54.133c29.897 0 54.133 24.236 54.133 54.133z" fill="#fe646f" fill-rule="evenodd"/></g><g><path clip-rule="evenodd" d="m131.906 132.542v-10.926c29.897 0 54.133 24.236 54.133 54.133h-10.926c-4.086-21.877-21.33-39.121-43.207-43.207z" fill="#fd4755" fill-rule="evenodd"/></g></g></g></g><g><path clip-rule="evenodd" d="m445.169 397.162c0-1.45-.565-2.801-1.553-3.813-.988-.998-2.354-1.558-3.813-1.558s-2.824.56-3.813 1.558l-36.714 36.709c-3.107 3.121-8.19 3.121-11.296 0l-13.556-13.565c-1.035-1.003-2.401-1.562-3.813-1.562-1.459 0-2.824.56-3.813 1.562-.047 0-.047 0-.047 0-.988 1.007-1.553 2.358-1.553 3.808s.565 2.81 1.553 3.808l20.851 20.833c1.883 1.878 4.048 3.13 5.978 3.417 1.6.245 2.824-.188 4.095-1.469l45.939-45.92c.991-.999 1.555-2.359 1.555-3.808zm16.004 0c0 5.728-2.212 11.099-6.26 15.128l-45.892 45.911c-4.142 4.128-9.319 6.171-14.685 6.171-6.213 0-12.661-2.73-18.027-8.12l-20.852-20.823c-4.001-4.029-6.26-9.4-6.26-15.128 0-5.719 2.259-11.089 6.26-15.119 8.331-8.341 21.934-8.341 30.265 0l7.908 7.908 31.065-31.046c4.001-4.034 9.367-6.251 15.109-6.251s11.108 2.217 15.109 6.251c4.048 4.028 6.26 9.394 6.26 15.118zm11.908 22.946c0 37.443-30.453 67.892-67.873 67.892-37.467 0-67.92-30.449-67.92-67.892 0-37.438 30.453-67.897 67.92-67.897 37.42 0 67.873 30.458 67.873 67.897zm-117.107 67.892h-303.546c-7.437 0-13.509-6.058-13.509-13.518v-395.972c0-7.461 6.072-13.518 13.509-13.518h74.886v34.939c0 4.42 3.577 8.002 8.002 8.002h165.682c4.424 0 8.002-3.582 8.002-8.002v-34.939h74.839c7.484 0 13.556 6.058 13.556 13.518v258.078c-15.486 1.44-29.747 7.093-41.609 15.792h-99.033c-4.377 0-8.002 3.577-8.002 8.002 0 4.42 3.624 7.997 8.002 7.997h82.465c-3.436 4.34-6.401 9.032-8.943 14.003h-73.521c-4.377 0-8.002 3.577-8.002 7.997s3.624 8.002 8.002 8.002h67.402c-1.177 4.528-2.071 9.212-2.495 13.998h-64.908c-4.377 0-8.002 3.582-8.002 8.002s3.624 7.997 8.002 7.997h64.955c2.401 24.485 15.391 45.892 34.266 59.622zm-212.656-396.07h149.679v-39.952h-39.302c-3.672 0-6.872-2.528-7.766-6.129-3.108-12.859-14.546-21.849-27.772-21.849-13.273 0-24.711 8.99-27.77 21.849-.894 3.601-4.095 6.129-7.813 6.129h-39.255v39.952zm345.767 328.178c0 46.264-37.608 83.891-83.877 83.891-4.565 0-9.084-.377-13.462-1.087-2.542.72-5.225 1.087-7.908 1.087h-331.41c-16.239 0-29.512-13.236-29.512-29.517v-395.972c0-16.281 13.274-29.521 29.512-29.521h74.886v-5.008c0-4.42 3.577-8.002 8.002-8.002h41.42c6.684-16.747 22.922-27.978 41.42-27.978s34.69 11.231 41.374 27.978h41.467c4.424 0 8.002 3.582 8.002 8.002v5.008h74.839c16.286 0 29.559 13.24 29.559 29.521v258.111c42.41 4.119 75.688 39.99 75.688 83.487zm-280.624-206.896v54.746h17.462v-54.746zm62.177 54.746h17.463v-126.978h-17.463zm62.131 0h17.51v-88.678h-17.51zm-132.31-70.745c-4.424 0-8.002 3.577-8.002 7.997v62.747h-10.214c-4.425 0-8.002 3.582-8.002 8.002s3.577 8.002 8.002 8.002h191.758c4.425 0 8.002-3.582 8.002-8.002s-3.577-8.002-8.002-8.002h-7.719v-96.675c0-4.424-3.577-8.002-8.002-8.002h-33.513c-4.425 0-8.002 3.577-8.002 8.002v96.675h-12.661v-134.979c0-4.42-3.577-7.997-8.002-7.997h-33.466c-4.424 0-8.002 3.577-8.002 7.997v134.979h-12.708v-62.747c0-4.42-3.577-7.997-8.002-7.997zm-23.817 185.169h-102.704c-4.425 0-8.002 3.577-8.002 7.997s3.577 8.002 8.002 8.002h102.704c4.424 0 8.002-3.582 8.002-8.002s-3.578-7.997-8.002-7.997zm0-59.999h-102.704c-4.425 0-8.002 3.577-8.002 7.997s3.577 8.002 8.002 8.002h102.704c4.424 0 8.002-3.582 8.002-8.002s-3.578-7.997-8.002-7.997zm0 89.996h-102.704c-4.425 0-8.002 3.582-8.002 8.002s3.577 7.997 8.002 7.997h102.704c4.424 0 8.002-3.577 8.002-7.997s-3.578-8.002-8.002-8.002zm182.862-89.996h-102.751c-4.377 0-8.002 3.577-8.002 7.997s3.624 8.002 8.002 8.002h102.751c4.425 0 8.002-3.582 8.002-8.002s-3.577-7.997-8.002-7.997zm-182.862 29.997h-102.704c-4.425 0-8.002 3.577-8.002 8.002 0 4.42 3.577 7.997 8.002 7.997h102.704c4.424 0 8.002-3.577 8.002-7.997 0-4.424-3.578-8.002-8.002-8.002zm-33.372-184.627h37.42c-3.342-19.044-18.404-34.092-37.42-37.443zm-16.003 7.997c0 4.42 3.577 8.002 8.002 8.002h54.129c4.424 0 8.002-3.582 8.002-8.002 0-34.261-27.865-62.131-62.131-62.131-4.424 0-8.002 3.582-8.002 8.002zm-58.083 19.999c0 14.154 6.401 26.829 16.474 35.292l21.605-37.429v-43.261c-21.605 3.799-38.079 22.711-38.079 45.398zm50.693 8.002-20.381 35.311c4.942 1.798 10.214 2.777 15.768 2.777 22.687 0 41.609-16.47 45.422-38.088zm-66.696-8.002c0 34.242 27.865 62.088 62.084 62.088s62.084-27.846 62.084-62.088c0-4.42-3.577-7.997-8.002-7.997h-46.08v-46.09c0-4.42-3.577-8.002-8.002-8.002-34.22.001-62.084 27.852-62.084 62.089zm174.625-149.758c0 5.328-4.33 9.677-9.649 9.677s-9.696-4.349-9.696-9.677 4.377-9.668 9.696-9.668 9.649 4.34 9.649 9.668z" fill="#242222" fill-rule="evenodd"/></g></g></svg>