<svg height="512pt" viewBox="0 -10 512 512" width="512pt" xmlns="http://www.w3.org/2000/svg"><path d="m200.503906 205.21875h107.03125v98.796875h-107.03125zm0 0" fill="#305967"/><path d="m200.503906 205.21875h37.246094v98.796875h-37.246094zm0 0" fill="#1c414b"/><path d="m0 277.484375h512v177.234375h-512zm0 0" fill="#4283b2"/><path d="m0 408.023438h512v46.695312h-512zm0 0" fill="#1c6693"/><path d="m276.664062 22.640625v121.4375h-45.289062v-121.4375c0-12.511719 10.140625-22.640625 22.648438-22.640625 3.800781 0 7.382812.9375 10.519531 2.589844 7.203125 3.78125 12.121093 11.339844 12.121093 20.050781zm0 0" fill="#1c414b"/><path d="m276.664062 22.640625v121.4375h-24.242187v-121.4375c0-8.710937 4.917969-16.269531 12.121094-20.050781 7.203125 3.78125 12.121093 11.339844 12.121093 20.050781zm0 0" fill="#305967"/><path d="m302.734375 145.34375v48.128906h-97.429687v-48.128906c0-13.585938 11.011718-24.597656 24.597656-24.597656h48.234375c13.582031 0 24.597656 11.011718 24.597656 24.597656zm0 0" fill="#b3b3b3"/><path d="m302.734375 145.34375v48.128906h-59.441406v-48.128906c0-13.585938 11.003906-24.597656 24.589843-24.597656h10.253907c13.582031 0 24.597656 11.011718 24.597656 24.597656zm0 0" fill="#ccc"/><path d="m379.773438 366.101562c0 57.382813-38.429688 105.78125-90.953126 120.875-11.050781 3.183594-22.722656 4.882813-34.796874 4.882813-69.457032 0-125.761719-56.300781-125.761719-125.757813 0-69.460937 56.304687-125.75 125.761719-125.75 12.074218 0 23.746093 1.699219 34.796874 4.882813 52.527344 15.09375 90.953126 63.480469 90.953126 120.867187zm0 0" fill="#1c6693"/><path d="m330.332031 266.152344v199.910156c-12.253906 9.371094-26.292969 16.539062-41.507812 20.921875-52.511719-15.101563-90.945313-63.507813-90.945313-120.882813 0-57.386718 38.433594-105.769531 90.945313-120.871093 15.214843 4.378906 29.253906 11.539062 41.507812 20.921875zm0 0" fill="#4283b2"/><path d="m171.367188 277.476562v177.238282c0 19.269531-15.617188 34.886718-34.875 34.886718h-38.425782c-19.257812 0-34.875-15.617187-34.875-34.886718v-177.238282c0-19.257812 15.617188-34.871093 34.875-34.871093h38.425782c19.257812 0 34.875 15.613281 34.875 34.871093zm0 0" fill="#1c6693"/><path d="m171.367188 277.476562v126.472657c0 19.261719-15.617188 34.875-34.875 34.875h-38.425782c-19.257812 0-34.875-15.613281-34.875-34.875v-126.472657c0-19.257812 15.617188-34.871093 34.875-34.871093h38.425782c19.257812 0 34.875 15.613281 34.875 34.871093zm0 0" fill="#4283b2"/><path d="m430.34375 62.875c0 14.78125-11.972656 26.765625-26.753906 26.765625h-299.140625c-7.382813 0-14.078125-3-18.921875-7.84375s-7.835938-11.53125-7.835938-18.921875c0-14.773438 11.984375-26.757812 26.757813-26.757812h299.140625c7.390625 0 14.078125 2.992187 18.921875 7.835937 4.84375 4.839844 7.832031 11.539063 7.832031 18.921875zm0 0" fill="#e23333"/><path d="m430.34375 62.875c0 14.78125-11.972656 26.765625-26.753906 26.765625h-212.375c-7.382813 0-14.078125-3-18.921875-7.84375s-7.835938-11.53125-7.835938-18.921875c0-14.773438 11.984375-26.757812 26.757813-26.757812h212.375c7.390625 0 14.078125 2.992187 18.921875 7.835937 4.84375 4.839844 7.832031 11.539063 7.832031 18.921875zm0 0" fill="#f95858"/><path d="m103.910156 242.605469h26.738282v246.996093h-26.738282zm0 0" fill="#305967"/><path d="m103.910156 426.144531h26.738282v63.453125h-26.738282zm0 0" fill="#1c414b"/><path d="m413.929688 489.597656h-38.417969c-19.265625 0-34.882813-15.617187-34.882813-34.878906v-177.234375c0-19.265625 15.617188-34.878906 34.882813-34.878906h38.417969c19.261718 0 34.878906 15.613281 34.878906 34.878906v177.234375c0 19.265625-15.617188 34.878906-34.878906 34.878906zm0 0" fill="#1c6693"/><path d="m448.804688 277.476562v126.472657c0 19.261719-15.617188 34.875-34.875 34.875h-38.421876c-19.261718 0-34.875-15.613281-34.875-34.875v-126.472657c0-19.257812 15.613282-34.871093 34.875-34.871093h38.421876c19.257812 0 34.875 15.613281 34.875 34.871093zm0 0" fill="#4283b2"/><path d="m381.351562 242.605469h26.734376v246.996093h-26.734376zm0 0" fill="#305967"/><path d="m381.351562 426.144531h26.734376v63.453125h-26.734376zm0 0" fill="#1c414b"/><path d="m321.078125 198.730469c0 14.195312-11.507813 25.703125-25.703125 25.703125h-82.710938c-7.097656 0-13.519531-2.875-18.175781-7.527344-4.652343-4.65625-7.527343-11.078125-7.527343-18.175781 0-14.191407 11.507812-25.691407 25.703124-25.691407h82.710938c7.097656 0 13.519531 2.875 18.171875 7.527344 4.65625 4.644532 7.53125 11.066406 7.53125 18.164063zm0 0" fill="#b3b3b3"/><path d="m321.078125 198.730469c0 14.195312-11.507813 25.703125-25.703125 25.703125h-48.070312c-7.09375 0-13.519532-2.875-18.171876-7.527344-4.644531-4.65625-7.519531-11.078125-7.519531-18.175781 0-14.191407 11.5-25.691407 25.691407-25.691407h48.070312c7.097656 0 13.519531 2.875 18.171875 7.527344 4.65625 4.644532 7.53125 11.066406 7.53125 18.164063zm0 0" fill="#ccc"/></svg>